# xmcd
#
# Track frame offsets: 
#        150
#        14605
#        31507
#        50945
#        70406
#        89019
#        108125
#        131731
#        148099
#        162380
#        188287
#        208146
#        222121
#        239959
#        254721
#        272702
#        287439
#        304532
#
# Disc length: 4341 seconds
#
# Revision: 0
# Processed by: cddbd v1.5.1PL2 Copyright (c) Steve Scherf et al.
# Submitted via: ExactAudioCopy v0.95a5
#
DISCID=1710f312
DTITLE=Simply Red - Simplified
DYEAR=2005
DGENRE=Ballad
TTITLE0=Perfect Love
TTITLE1=Something Got Me Started
TTITLE2=Holding Back The Years
TTITLE3=More
TTITLE4=A Song For You
TTITLE5=Your Mirror
TTITLE6=Fairground
TTITLE7=My Perfect Love
TTITLE8=Smile
TTITLE9=Sad Old Red
TTITLE10=For Your Babies
TTITLE11=Ev'ry Time We Say Goodbye
TTITLE12=Fake
TTITLE13=Sunrise
TTITLE14=Angel
TTITLE15=Home
TTITLE16=Your Eyes (Mousse T Acoustic)
TTITLE17=The Spirit Of Life
EXTD=
EXTT0=
EXTT1=
EXTT2=
EXTT3=
EXTT4=
EXTT5=
EXTT6=
EXTT7=
EXTT8=
EXTT9=
EXTT10=
EXTT11=
EXTT12=
EXTT13=
EXTT14=
EXTT15=
EXTT16=
EXTT17=
PLAYORDER=
